PathFileType	4	(X/Y/Z)	C:\Users\Graham\Documents\MATLAB\MOtoNMS_v2_2\MyData\ElaboratedData\S4\17-05-18\staticElaborations\Static1\Static1\\Static1.trc
DataRate	CameraRate	NumFrames	NumMarkers	Units	OrigDataRate	DataStartFrame
100	100	6	38	mm	100	2
Frame#	Time	V_Sacral			R_ASIS			L_ASIS			R_Knee_Lat			R_Knee_Med			R_Thigh_Upper			R_Thigh_Front			R_Thigh_Rear			L_Knee_Lat			L_Knee_Med			L_Thigh_Upper			L_Thigh_Front			L_Thigh_Rear			R_Ankle_Lat			R_Ankle_Med			R_Shank_Upper			R_Shank_Front			R_Shank_Rear			L_Ankle_Lat			L_Ankle_Med			L_Shank_Upper			L_Shank_Front			L_Shank_Rear			R_Heel			R_MTP1			R_MTP5			L_Heel			L_MTP1			L_MTP5			Clavicle			R_Acromium			L_Acromium			LAJC			RAJC			LHJC			RHJC			LKJC			RKJC		
		X1	Y1	Z1	X2	Y2	Z2	X3	Y3	Z3	X4	Y4	Z4	X5	Y5	Z5	X6	Y6	Z6	X7	Y7	Z7	X8	Y8	Z8	X9	Y9	Z9	X10	Y10	Z10	X11	Y11	Z11	X12	Y12	Z12	X13	Y13	Z13	X14	Y14	Z14	X15	Y15	Z15	X16	Y16	Z16	X17	Y17	Z17	X18	Y18	Z18	X19	Y19	Z19	X20	Y20	Z20	X21	Y21	Z21	X22	Y22	Z22	X23	Y23	Z23	X24	Y24	Z24	X25	Y25	Z25	X26	Y26	Z26	X27	Y27	Z27	X28	Y28	Z28	X29	Y29	Z29	X30	Y30	Z30	X31	Y31	Z31	X32	Y32	Z32	X33	Y33	Z33	X34	Y34	Z34	X35	Y35	Z35	X36	Y36	Z36	X37	Y37	Z37	X38	Y38	Z38	

131	1.300000	-137.271724	1011.397147	19.559923	64.315149	982.471527	149.944433	81.669155	976.172412	-84.854259	-45.488712	505.225281	204.042837	-42.598646	492.903804	93.669613	89.562586	737.638198	140.686594	39.872242	632.023737	90.387641	41.298350	624.005764	174.938939	-58.252572	512.367624	-158.246119	-73.723069	486.440141	-39.712906	91.978046	756.652825	-70.676219	41.728740	643.773422	-33.478026	55.317215	639.304674	-109.713091	-155.328511	104.088846	223.076386	-132.238096	119.335630	130.516732	-29.435670	327.698130	189.441824	-84.452078	225.280987	143.656012	-88.194606	225.637203	225.718494	-146.679536	97.182890	-152.564965	-124.912349	120.655625	-61.040499	-40.802193	367.147589	-125.488049	-80.543682	252.417202	-85.366971	-75.750969	254.931648	-166.329048	-225.874509	57.965444	179.722972	5.242571	64.455566	165.447655	-8.862401	58.330793	238.340624	-220.166462	55.503177	-104.857123	8.691852	60.710198	-83.151179	-15.699919	55.397839	-171.403127	14.361618	1393.552530	15.623558	-72.893165	1444.708927	206.251234	-71.640128	1439.617465	-177.386244	-135.795942	108.919257	-106.802732	-143.783304	111.712238	176.796559	6.716239	905.607959	-55.660933	-5.813172	910.155855	113.861280	-65.987820	499.403883	-98.979512	-44.043679	499.064543	148.856225	
132	1.310000	-137.204203	1011.349712	19.545974	64.370407	982.468379	149.945884	81.751319	976.160586	-84.843141	-45.330884	505.191598	204.022229	-42.442983	492.864113	93.681823	89.725458	737.666667	140.698448	40.070175	632.030069	90.400051	41.475985	624.004706	174.934095	-58.173332	512.349967	-158.220699	-73.665644	486.435322	-39.583212	92.068987	756.638279	-70.647915	41.888829	643.831548	-33.454893	55.402792	639.289829	-109.682554	-155.330378	104.109918	223.067648	-132.222893	119.335459	130.505975	-29.328242	327.655893	189.409818	-84.599995	225.142498	143.661673	-88.121181	225.617581	225.697048	-146.676312	97.185778	-152.562764	-124.907924	120.653721	-61.034755	-40.758549	367.133326	-125.478103	-80.520401	252.408565	-85.358630	-75.719618	254.923699	-166.323782	-225.868062	57.981630	179.720941	5.257407	64.464018	165.438074	-8.856296	58.325625	238.333662	-220.163597	55.505006	-104.859715	8.690411	60.725334	-83.180488	-15.700987	55.399250	-171.403033	14.423189	1393.540680	15.587657	-72.861304	1444.707341	206.206230	-71.560733	1439.580379	-177.432745	-135.792118	108.919750	-106.798760	-143.776635	111.722689	176.786812	6.809458	905.585823	-55.655799	-5.739413	910.139997	113.859893	-65.919488	499.392644	-98.901955	-43.886934	499.027856	148.852026	
133	1.320000	-137.132279	1011.298447	19.533071	64.432041	982.466120	149.948661	81.839540	976.147745	-84.832834	-45.169285	505.157854	204.002128	-42.260978	492.849288	93.711320	89.896044	737.694942	140.710054	40.266846	632.035312	90.413491	41.659489	624.004748	174.928883	-58.088807	512.331426	-158.196536	-73.602183	486.429456	-39.446214	92.165284	756.622578	-70.619231	42.033073	643.870712	-33.430996	55.494920	639.273688	-109.651025	-155.331278	104.131069	223.058508	-132.207269	119.335468	130.495281	-29.218846	327.614641	189.376736	-84.802804	224.968382	143.675628	-88.046470	225.597246	225.676499	-146.672861	97.188381	-152.560208	-124.904421	120.651623	-61.028509	-40.712009	367.117535	-125.467013	-80.494526	252.399548	-85.349614	-75.686674	254.914487	-166.317776	-225.861287	57.997824	179.718082	5.270552	64.467372	165.429207	-8.849667	58.320032	238.326276	-220.161247	55.506375	-104.861524	8.688882	60.741781	-83.212518	-15.702080	55.400753	-171.402983	14.477430	1393.526882	15.551122	-72.837814	1444.701953	206.161187	-71.487496	1439.539765	-177.480002	-135.788641	108.920002	-106.794359	-143.769273	111.733268	176.776894	6.909693	905.560988	-55.650279	-5.658399	910.122810	113.860302	-65.845495	499.380441	-98.821375	-43.715131	499.003571	148.856724	
134	1.330000	-137.054287	1011.244428	19.521172	64.501410	982.464941	149.952603	81.934856	976.133705	-84.823913	-45.008923	505.125164	203.983361	-42.047465	492.870045	93.765361	90.069869	737.720832	140.721472	40.457708	632.038424	90.427565	41.844403	624.005507	174.923924	-57.999707	512.312473	-158.175072	-73.532258	486.422501	-39.311134	92.267415	756.605413	-70.590885	42.136399	643.871509	-33.406034	55.593683	639.256053	-109.619158	-155.333012	104.152370	223.048915	-132.191856	119.335568	130.485038	-29.110837	327.575642	189.344006	-85.047547	224.767866	143.696658	-87.973069	225.577045	225.657488	-146.669229	97.190754	-152.557284	-124.901790	120.649455	-61.022075	-40.662751	367.100386	-125.454972	-80.465976	252.390164	-85.340074	-75.652121	254.904144	-166.310910	-225.854403	58.013394	179.714483	5.280824	64.463943	165.421761	-8.843062	58.314363	238.318784	-220.159699	55.507390	-104.862094	8.687547	60.757777	-83.244368	-15.703009	55.402122	-171.402835	14.523926	1393.511128	15.514078	-72.822895	1444.692139	206.116125	-71.421388	1439.495194	-177.528036	-135.785510	108.920105	-106.789680	-143.762434	111.743969	176.766976	7.017693	905.533579	-55.644687	-5.569145	910.104691	113.862465	-65.765982	499.367487	-98.743103	-43.528194	498.997604	148.874361	
135	1.340000	-136.968658	1011.188996	19.510172	64.579537	982.465153	149.957540	82.038110	976.118503	-84.816798	-44.854555	505.094539	203.966636	-41.798818	492.935106	93.850089	90.242241	737.742375	140.732819	40.639045	632.038594	90.441976	42.026284	624.006559	174.919844	-57.906938	512.293682	-158.157832	-73.455799	486.414469	-39.185790	92.375760	756.586618	-70.563471	42.181265	643.820653	-33.379841	55.698920	639.236876	-109.587586	-155.336785	104.173664	223.038917	-132.177258	119.335674	130.475583	-29.007372	327.539912	189.313130	-85.318851	224.551798	143.723073	-87.903400	225.557802	225.640501	-146.665443	97.192974	-152.554039	-124.899847	120.647334	-61.015784	-40.611066	367.082127	-125.442211	-80.434754	252.380471	-85.330185	-75.615952	254.892865	-166.303125	-225.847634	58.027866	179.710340	5.287472	64.452952	165.416315	-8.836995	58.308992	238.311551	-220.159060	55.508214	-104.861200	8.686627	60.771909	-83.273600	-15.703606	55.403145	-171.402470	14.562444	1393.493646	15.476630	-72.816756	1444.677606	206.070931	-71.363381	1439.446364	-177.576821	-135.782645	108.920154	-106.784912	-143.757022	111.754669	176.757250	7.134000	905.504010	-55.639293	-5.470979	910.086251	113.866281	-65.681368	499.354075	-98.671811	-43.326686	499.014822	148.908363	
136	1.350000	-136.874066	1011.133651	19.499866	64.667035	982.467183	149.963321	82.149889	976.102434	-84.811660	-44.710221	505.066803	203.952485	-41.514276	493.049369	93.969070	90.408796	737.758066	140.744269	40.808271	632.035349	90.456558	42.201117	624.007467	174.917223	-57.811470	512.275621	-158.146046	-73.373135	486.405429	-39.075815	92.490544	756.566198	-70.537389	42.162321	643.714497	-33.352483	55.810244	639.216277	-109.556841	-155.343001	104.194559	223.028669	-132.163963	119.335719	130.467166	-28.911084	327.508147	189.285511	-85.600021	224.331843	143.752844	-87.839458	225.540241	225.625841	-146.661503	97.195128	-152.550580	-124.898318	120.645373	-61.009934	-40.557307	367.063067	-125.428977	-80.400967	252.370567	-85.320149	-75.578167	254.880890	-166.294445	-225.841183	58.040961	179.705920	5.290342	64.434783	165.413230	-8.831859	58.304257	238.304938	-220.159237	55.509046	-104.858878	8.686256	60.783322	-83.298599	-15.703752	55.403663	-171.401816	14.592933	1393.474911	15.438883	-72.819653	1444.658458	206.025370	-71.314381	1439.393236	-177.626234	-135.779911	108.920251	-106.780257	-143.753482	111.765139	176.747918	7.258915	905.472991	-55.634245	-5.363580	910.068294	113.871612	-65.592303	499.340525	-98.610930	-43.112249	499.058086	148.960778	
